<svg id="Component_4_1" data-name="Component 4 – 1" xmlns="http://www.w3.org/2000/svg" width="9.5" height="9.5" viewBox="0 0 9.5 9.5">
  <g id="Group_1" data-name="Group 1" transform="translate(-38 -161)">
    <g id="Path_2" data-name="Path 2" transform="translate(38 161)" fill="#2f3136">
      <path d="M 4.75 9 C 2.406539916992188 9 0.5 7.093460083007812 0.5 4.75 C 0.5 2.406539916992188 2.406539916992188 0.5 4.75 0.5 C 7.093460083007812 0.5 9 2.406539916992188 9 4.75 C 9 7.093460083007812 7.093460083007812 9 4.75 9 Z" stroke="none"/>
      <path d="M 4.75 1 C 2.682240009307861 1 1 2.682240009307861 1 4.75 C 1 6.817759990692139 2.682240009307861 8.5 4.75 8.5 C 6.817759990692139 8.5 8.5 6.817759990692139 8.5 4.75 C 8.5 2.682240009307861 6.817759990692139 1 4.75 1 M 4.75 0 C 7.373350143432617 0 9.5 2.126649856567383 9.5 4.75 C 9.5 7.373350143432617 7.373350143432617 9.5 4.75 9.5 C 2.126649856567383 9.5 0 7.373350143432617 0 4.75 C 0 2.126649856567383 2.126649856567383 0 4.75 0 Z" stroke="none" fill="#2f3136"/>
    </g>
  </g>
  <path id="Icon_open-moon" data-name="Icon open-moon" d="M4.879,7.5A3.851,3.851,0,1,0,0,2.623,3.993,3.993,0,0,1,1.234,2.41,3.856,3.856,0,0,1,5.091,6.267,3.728,3.728,0,0,1,4.879,7.5Z" transform="translate(8.564 1.063) rotate(90)" fill="#f2a319"/>
</svg>
